<svg width="16" height="16" viewBox="0 0 16 16" fill="none" xmlns="http://www.w3.org/2000/svg">
<path d="M2.00008 9.33333L2.33341 9.38L5.38008 6.33333C5.26008 5.9 5.37341 5.40667 5.72675 5.06C6.24675 4.53333 7.08675 4.53333 7.60675 5.06C7.96008 5.40667 8.07342 5.9 7.95341 6.33333L9.66675 8.04667L10.0001 8C10.1201 8 10.2334 8 10.3334 8.04667L12.7134 5.66667C12.6667 5.56667 12.6667 5.45333 12.6667 5.33333C12.6667 4.97971 12.8072 4.64057 13.0573 4.39052C13.3073 4.14048 13.6465 4 14.0001 4C14.3537 4 14.6928 4.14048 14.9429 4.39052C15.1929 4.64057 15.3334 4.97971 15.3334 5.33333C15.3334 5.68696 15.1929 6.02609 14.9429 6.27614C14.6928 6.52619 14.3537 6.66667 14.0001 6.66667C13.8801 6.66667 13.7667 6.66667 13.6667 6.62L11.2867 9C11.3334 9.1 11.3334 9.21333 11.3334 9.33333C11.3334 9.68696 11.1929 10.0261 10.9429 10.2761C10.6928 10.5262 10.3537 10.6667 10.0001 10.6667C9.64646 10.6667 9.30732 10.5262 9.05727 10.2761C8.80722 10.0261 8.66675 9.68696 8.66675 9.33333L8.71342 9L7.00008 7.28667C6.78675 7.33333 6.54675 7.33333 6.33342 7.28667L3.28675 10.3333L3.33341 10.6667C3.33341 11.0203 3.19294 11.3594 2.94289 11.6095C2.69284 11.8595 2.3537 12 2.00008 12C1.64646 12 1.30732 11.8595 1.05727 11.6095C0.807224 11.3594 0.666748 11.0203 0.666748 10.6667C0.666748 10.313 0.807224 9.97391 1.05727 9.72386C1.30732 9.47381 1.64646 9.33333 2.00008 9.33333Z" fill="black"/>
</svg>
