<svg width="16" height="16" viewBox="0 0 16 16" fill="none" xmlns="http://www.w3.org/2000/svg">
<path d="M11.9333 11.5934C11.7599 11.06 11.2599 10.6667 10.6666 10.6667H9.99992V8.66671C9.99992 8.4899 9.92968 8.32033 9.80466 8.1953C9.67963 8.07028 9.51006 8.00004 9.33325 8.00004H5.33325V6.66671H6.66658C6.8434 6.66671 7.01297 6.59647 7.13799 6.47144C7.26301 6.34642 7.33325 6.17685 7.33325 6.00004V4.66671H8.66658C9.02021 4.66671 9.35935 4.52623 9.60939 4.27618C9.85944 4.02613 9.99992 3.687 9.99992 3.33337V3.06004C11.9533 3.84671 13.3333 5.76004 13.3333 8.00004C13.3333 9.38671 12.7999 10.6467 11.9333 11.5934ZM7.33325 13.2867C4.69992 12.96 2.66659 10.72 2.66659 8.00004C2.66659 7.58671 2.71992 7.18671 2.80659 6.80671L5.99992 10V10.6667C5.99992 11.0203 6.14039 11.3595 6.39044 11.6095C6.64049 11.8596 6.97963 12 7.33325 12M7.99992 1.33337C7.12444 1.33337 6.25753 1.50581 5.4487 1.84084C4.63986 2.17588 3.90493 2.66694 3.28587 3.286C2.03563 4.53624 1.33325 6.23193 1.33325 8.00004C1.33325 9.76815 2.03563 11.4638 3.28587 12.7141C3.90493 13.3331 4.63986 13.8242 5.4487 14.1592C6.25753 14.4943 7.12444 14.6667 7.99992 14.6667C9.76803 14.6667 11.4637 13.9643 12.714 12.7141C13.9642 11.4638 14.6666 9.76815 14.6666 8.00004C14.6666 7.12456 14.4941 6.25765 14.1591 5.44882C13.8241 4.63998 13.333 3.90505 12.714 3.286C12.0949 2.66694 11.36 2.17588 10.5511 1.84084C9.7423 1.50581 8.8754 1.33337 7.99992 1.33337Z" fill="black"/>
</svg>
