<svg width="16" height="16" viewBox="0 0 16 16" fill="none" xmlns="http://www.w3.org/2000/svg">
<path d="M6.00008 3.33337C6.70733 3.33337 7.3856 3.61433 7.8857 4.11442C8.3858 4.61452 8.66675 5.2928 8.66675 6.00004C8.66675 6.70728 8.3858 7.38556 7.8857 7.88566C7.3856 8.38576 6.70733 8.66671 6.00008 8.66671C5.29284 8.66671 4.61456 8.38576 4.11446 7.88566C3.61437 7.38556 3.33341 6.70728 3.33341 6.00004C3.33341 5.2928 3.61437 4.61452 4.11446 4.11442C4.61456 3.61433 5.29284 3.33337 6.00008 3.33337ZM6.00008 10C7.78008 10 11.3334 10.8934 11.3334 12.6667V14H0.666748V12.6667C0.666748 10.8934 4.22008 10 6.00008 10ZM11.1734 3.57337C12.5201 5.04004 12.5201 7.07337 11.1734 8.42004L10.0534 7.29337C10.6134 6.50671 10.6134 5.48671 10.0534 4.70004L11.1734 3.57337ZM13.3801 1.33337C16.0001 4.03337 15.9801 8.07337 13.3801 10.6667L12.2934 9.58004C14.1401 7.46004 14.1401 4.43337 12.2934 2.42004L13.3801 1.33337Z" fill="black"/>
</svg>
